<?xml version="1.0" standalone="no"?>
<!DOCTYPE svg PUBLIC "-//W3C//DTD SVG 20010904//EN"
 "http://www.w3.org/TR/2001/REC-SVG-20010904/DTD/svg10.dtd">
<svg version="1.0" xmlns="http://www.w3.org/2000/svg"
 width="50pt" height="58.3pt" viewBox="0 0 300.000000 346.000000"
 preserveAspectRatio="xMidYMid meet">
<metadata>
Created by potrace 1.10, written by Peter Selinger 2001-2011
</metadata>
<g transform="translate(0.000000,346.000000) scale(0.100000,-0.100000)"
fill="#000000" stroke="none">
<path d="M2218 3405 c-5 -44 6 -45 21 -4 14 40 14 39 -3 39 -8 0 -15 -14 -18
-35z"/>
<path d="M1081 3355 c-2 -5 -2 -32 -1 -58 1 -26 -4 -55 -10 -63 -19 -22 -2
-17 41 14 46 32 49 41 12 39 -25 -2 -29 2 -34 38 -3 22 -7 36 -8 30z"/>
<path d="M1238 3353 c-10 -2 -18 -8 -18 -13 0 -4 -13 -13 -30 -19 -16 -5 -30
-14 -30 -20 0 -5 26 3 58 18 31 16 64 31 72 34 18 7 -27 7 -52 0z"/>
<path d="M1368 3343 c-127 -26 -245 -100 -376 -238 -73 -77 -156 -186 -191
-252 -20 -39 -3 -25 26 20 31 48 109 152 136 182 63 68 118 121 162 153 28 20
52 39 55 42 3 3 28 15 55 28 28 13 59 28 69 34 16 8 18 7 12 -9 -6 -17 -5 -17
8 -1 7 10 26 19 43 21 16 2 35 7 43 12 10 6 12 4 7 -8 -3 -10 -2 -17 3 -17 6
0 10 7 10 15 0 8 5 15 10 15 6 0 10 -8 10 -17 1 -17 1 -17 11 0 12 21 31 23
23 2 -4 -8 -1 -15 5 -15 6 0 11 7 11 15 0 23 52 13 61 -11 7 -17 8 -17 8 -1 1
19 5 20 39 11 17 -5 21 -11 17 -25 -4 -11 -2 -19 4 -19 6 0 11 7 11 15 0 19 0
19 59 -10 33 -17 48 -30 45 -39 -3 -8 -1 -17 5 -21 7 -3 8 0 5 9 -3 9 -2 16 3
16 15 0 93 -75 93 -90 0 -7 3 -10 7 -7 10 10 32 -13 27 -28 -3 -8 1 -12 13
-12 12 1 17 -4 15 -15 -1 -9 2 -19 8 -23 5 -3 10 0 10 7 0 7 8 1 17 -12 10
-14 17 -28 15 -32 -1 -5 3 -8 9 -8 5 0 7 -4 4 -10 -3 -5 0 -10 7 -10 20 0 163
-267 173 -324 9 -46 25 -57 20 -14 -6 50 -15 76 -62 169 -91 182 -160 279
-266 370 -149 128 -296 169 -479 132z"/>
<path d="M2201 3351 c-8 -6 -12 -19 -9 -35 3 -15 0 -31 -8 -37 -8 -6 -14 -24
-14 -40 0 -24 -5 -29 -36 -35 -20 -4 -78 -4 -130 -2 -52 3 -94 1 -94 -3 0 -11
-2 -11 127 -9 57 1 111 -4 123 -10 18 -9 20 -8 20 14 0 14 5 28 10 31 6 3 10
17 10 31 0 14 5 34 11 45 14 28 8 61 -10 50z"/>
<path d="M1467 3260 c-7 -28 11 -36 21 -9 l9 23 5 -22 c8 -30 28 -28 28 3 0
21 -5 25 -29 25 -20 0 -30 -6 -34 -20z"/>
<path d="M1544 3250 c1 -17 5 -30 9 -30 4 0 7 2 7 5 0 3 0 16 0 30 0 14 -4 25
-9 25 -5 0 -8 -14 -7 -30z"/>
<path d="M1580 3245 c0 -26 15 -34 23 -12 3 6 6 2 6 -10 1 -34 21 -38 21 -4 0
20 -7 34 -19 41 -28 14 -31 13 -31 -15z"/>
<path d="M1674 3198 c2 -14 18 -31 46 -45 24 -13 51 -30 60 -38 9 -8 20 -15
23 -15 16 0 122 -100 196 -185 l43 -50 -43 64 c-58 84 -119 152 -130 145 -5
-3 -9 1 -9 8 0 8 -15 28 -34 46 -30 28 -35 30 -39 15 -3 -13 -5 -12 -6 6 -1
17 -5 21 -17 17 -8 -3 -12 -2 -9 3 3 5 1 12 -4 15 -5 4 -12 -2 -14 -11 -4 -14
-5 -13 -6 4 -1 25 -21 42 -21 19 0 -9 -5 -16 -11 -16 -6 0 -8 9 -4 20 4 14 2
20 -9 20 -11 0 -15 -7 -12 -22z"/>
<path d="M66 3198 c3 -4 209 -8 459 -8 249 0 461 -3 470 -6 14 -6 13 -8 -5
-21 -11 -8 -25 -11 -30 -8 -6 3 -10 -2 -10 -11 0 -9 -18 -34 -39 -55 -22 -20
-37 -39 -34 -42 3 -3 -10 -15 -28 -26 -19 -12 -30 -21 -26 -21 8 0 -32 -77
-64 -122 -11 -14 -19 -33 -19 -41 0 -8 -6 -30 -14 -49 -12 -28 -46 -187 -59
-278 l-4 -25 -189 -3 c-105 -1 -193 -7 -198 -12 -7 -7 59 -10 187 -10 l197 0
-4 -42 c-2 -24 -5 -47 -6 -53 -1 -5 -1 -14 0 -20 1 -5 1 -39 0 -74 -1 -43 2
-61 9 -56 6 3 11 36 11 73 1 109 30 349 54 435 46 167 109 270 249 407 37 36
67 69 67 73 0 5 -220 7 -489 5 -269 -1 -487 -6 -485 -10z"/>
<path d="M2237 3198 c-15 -10 -57 -8 381 -14 267 -4 382 -3 382 5 0 12 -744
21 -763 9z"/>
<path d="M1276 3114 c-9 -66 -8 -100 3 -88 11 11 20 134 10 134 -3 0 -9 -21
-13 -46z"/>
<path d="M1455 3130 c-3 -5 -3 -15 0 -20 4 -6 1 -17 -5 -25 -12 -14 -5 -39 9
-31 8 5 14 86 7 86 -3 0 -8 -4 -11 -10z"/>
<path d="M1369 3123 c-17 -4 -33 -73 -17 -73 4 0 8 11 8 24 0 14 5 28 10 31 6
3 10 1 10 -4 0 -6 5 -11 10 -11 6 0 10 9 10 20 0 20 -2 21 -31 13z"/>
<path d="M1419 3128 c-7 -28 -7 -78 1 -78 5 0 10 8 10 18 0 9 3 27 6 40 4 13
2 22 -5 22 -6 0 -11 -1 -12 -2z"/>
<path d="M1491 3068 c1 -35 4 -50 6 -35 4 22 9 27 26 25 18 -2 23 3 25 26 2
16 -1 33 -7 39 -8 8 -11 2 -11 -21 0 -20 -5 -32 -13 -32 -9 0 -12 10 -9 30 3
18 0 30 -7 30 -7 0 -10 -22 -10 -62z"/>
<path d="M1317 3113 c-5 -8 -10 -58 -8 -82 2 -29 14 0 17 44 4 43 1 54 -9 38z"/>
<path d="M1564 3080 c-1 -22 2 -40 6 -40 9 0 18 51 12 68 -8 25 -17 10 -18
-28z"/>
<path d="M1637 3093 c-8 -15 -6 -73 4 -73 5 0 9 12 9 26 0 15 4 23 11 19 6 -4
8 -13 5 -21 -3 -9 9 -21 34 -33 32 -15 40 -16 40 -5 0 8 -3 13 -7 12 -5 -2 -9
0 -10 5 -2 4 -1 7 2 7 3 0 12 0 20 0 10 0 15 -11 15 -35 0 -26 3 -33 15 -29 8
4 15 1 15 -5 0 -6 5 -11 10 -11 6 0 10 7 10 15 0 18 26 20 36 3 5 -8 2 -9 -9
-5 -12 5 -17 1 -17 -13 0 -22 16 -27 23 -7 3 6 6 2 6 -10 1 -13 6 -23 13 -23
16 0 124 -116 162 -175 54 -84 134 -317 166 -483 14 -71 34 -96 24 -30 -12 81
-76 334 -98 383 -7 17 -19 46 -26 65 -19 52 -54 120 -62 120 -5 0 -8 5 -8 11
0 16 -27 40 -42 37 -7 -2 -12 4 -10 13 2 16 -82 109 -99 109 -5 0 -9 7 -9 15
0 8 -6 15 -13 15 -7 0 -39 18 -72 40 -33 22 -63 40 -67 40 -5 0 -8 -12 -8 -26
0 -15 -4 -23 -10 -19 -6 4 -9 18 -8 33 2 15 -1 27 -7 27 -5 0 -15 4 -22 8 -6
4 -14 4 -16 0z"/>
<path d="M1180 3029 c0 -36 2 -40 15 -29 12 10 15 10 15 -1 1 -10 4 -8 11 4 5
9 17 17 24 17 8 0 15 6 15 13 0 24 -11 26 -31 6 -26 -26 -37 -24 -31 6 2 15 0
25 -7 25 -6 0 -11 -18 -11 -41z"/>
<path d="M1150 3044 c0 -11 -5 -14 -16 -10 -14 5 -16 1 -11 -29 3 -19 1 -37
-4 -40 -5 -4 -9 5 -9 19 0 14 -4 26 -10 26 -5 0 -10 -4 -10 -8 0 -5 -11 -15
-25 -22 -16 -9 -25 -22 -26 -39 0 -23 -1 -24 -8 -6 -7 17 -9 16 -16 -10 -5
-17 -7 -37 -6 -45 2 -13 0 -13 -8 -1 -8 12 -12 12 -25 2 -18 -15 -22 -61 -6
-61 6 0 10 7 10 15 0 8 11 17 25 21 18 5 25 13 26 33 0 23 1 24 9 6 5 -11 9
-14 9 -7 1 18 34 48 75 67 33 16 36 21 36 61 0 24 -2 44 -5 44 -3 0 -5 -7 -5
-16z"/>
<path d="M2658 3053 c17 -2 47 -2 65 0 17 2 3 4 -33 4 -36 0 -50 -2 -32 -4z"/>
<path d="M1446 2992 c-4 -29 -6 -56 -3 -59 8 -8 19 60 15 88 -3 15 -7 5 -12
-29z"/>
<path d="M1560 3019 c-1 -8 -5 -33 -9 -56 -5 -24 -5 -43 -1 -43 9 0 23 100 15
108 -3 3 -5 -1 -5 -9z"/>
<path d="M1586 2972 c-4 -29 -6 -56 -3 -59 8 -8 19 60 15 88 -3 15 -7 5 -12
-29z"/>
<path d="M2103 3003 c-15 -5 -18 -63 -4 -63 11 0 32 58 23 63 -4 3 -13 2 -19
0z"/>
<path d="M1270 2962 c0 -23 4 -42 8 -42 11 0 10 65 0 76 -5 4 -8 -11 -8 -34z"/>
<path d="M1285 2864 c-16 -6 -35 -10 -42 -7 -7 3 -13 0 -13 -7 0 -8 -8 -10
-23 -7 -26 7 -49 -5 -45 -23 2 -7 -2 -14 -9 -17 -6 -2 -13 6 -16 19 -4 20 -4
19 -6 -6 -1 -25 -3 -27 -17 -15 -15 12 -16 11 -10 -9 6 -17 4 -21 -8 -16 -10
4 -16 1 -16 -9 0 -9 -8 -18 -18 -21 -10 -3 -23 -20 -29 -37 -7 -18 -16 -28
-23 -24 -7 4 -10 0 -8 -11 2 -11 -2 -18 -9 -17 -7 2 -13 -4 -13 -12 0 -8 -5
-15 -11 -15 -6 0 -9 -7 -5 -15 3 -9 0 -15 -9 -15 -8 0 -17 -11 -21 -25 -3 -14
-10 -25 -15 -25 -5 0 -9 -7 -9 -15 0 -8 -4 -15 -10 -15 -11 0 -26 -47 -21 -68
1 -8 -7 -22 -18 -32 -12 -9 -23 -30 -25 -46 -2 -16 -9 -42 -16 -59 -7 -16 -12
-34 -11 -38 1 -5 -8 -20 -19 -34 -11 -14 -17 -29 -14 -34 3 -5 0 -9 -5 -9 -6
0 -11 -7 -11 -15 0 -8 -4 -15 -9 -15 -5 0 -8 -12 -8 -26 0 -28 -18 -68 -43
-98 -11 -13 -15 -42 -15 -112 0 -52 2 -94 5 -94 3 0 13 7 23 15 11 7 25 11 33
8 11 -4 14 8 14 56 0 34 4 61 9 61 4 0 7 10 4 23 -3 21 29 121 75 232 11 28
26 75 32 105 21 99 49 153 150 291 75 103 127 148 202 175 56 19 266 28 348
14 183 -32 244 -64 327 -173 26 -34 64 -80 84 -102 21 -23 38 -54 42 -75 3
-19 11 -48 18 -65 7 -16 11 -34 10 -38 0 -4 3 -16 9 -27 5 -10 12 -37 15 -60
3 -23 14 -58 24 -78 20 -39 51 -175 51 -222 0 -16 4 -31 8 -34 5 -3 7 -36 4
-73 -2 -37 -4 -78 -4 -90 0 -15 -7 -23 -22 -25 -25 -4 -55 -59 -56 -105 0 -17
-6 -34 -12 -36 -10 -4 -9 -8 2 -16 8 -6 11 -11 7 -11 -4 0 -3 -10 4 -21 10
-19 12 -20 27 -6 13 13 13 19 2 32 -22 27 3 115 40 140 43 28 63 89 62 182 -2
127 -6 158 -19 156 -8 -2 -13 8 -13 26 0 17 -5 33 -11 36 -6 4 -8 14 -5 22 4
11 2 13 -9 10 -8 -4 -17 -2 -20 3 -4 6 1 10 10 10 14 0 13 3 -2 27 -13 19 -14
28 -5 31 15 5 16 29 0 38 -8 5 -9 2 -5 -9 4 -11 1 -17 -7 -17 -17 0 -32 53
-17 58 17 6 13 30 -6 41 -10 6 -13 11 -8 11 6 0 4 4 -4 9 -12 8 -12 12 -2 24
10 12 8 18 -6 29 -10 7 -25 33 -33 58 -8 25 -23 53 -33 62 -10 9 -16 21 -13
26 3 5 -4 12 -16 15 -19 5 -20 8 -7 23 12 16 12 17 -5 11 -14 -6 -17 -4 -12 8
4 10 -1 15 -15 15 -15 0 -19 5 -15 18 4 11 -2 23 -14 32 -11 8 -20 21 -20 30
0 13 -1 13 -10 0 -6 -10 -10 -11 -10 -2 0 6 -6 12 -14 12 -8 0 -21 8 -28 18
-26 37 -127 86 -198 98 -8 1 -37 7 -65 13 -81 18 -187 23 -213 9 -16 -8 -28
-9 -40 -2 -12 8 -26 7 -47 -2z"/>
<path d="M930 2829 c0 -6 -11 -25 -24 -42 -34 -47 -100 -185 -116 -242 -7 -27
-16 -54 -20 -60 -16 -22 -73 -235 -65 -243 2 -2 8 11 13 30 12 40 31 92 48
133 10 25 24 67 29 85 5 19 22 55 56 125 21 44 39 86 39 93 0 6 5 12 10 12 6
0 10 6 10 13 0 7 12 25 26 40 17 19 23 34 19 47 -7 21 -25 28 -25 9z"/>
<path d="M2985 2748 c-4 -15 -13 -29 -21 -32 -8 -3 -14 -13 -14 -23 0 -10 -9
-24 -20 -31 -11 -7 -20 -18 -20 -26 0 -8 -7 -16 -15 -20 -8 -3 -15 -12 -15
-19 0 -8 -7 -20 -15 -27 -8 -7 -12 -16 -10 -21 3 -4 -4 -13 -15 -19 -11 -6
-20 -17 -20 -25 0 -17 11 -16 -382 -19 -147 0 -227 -5 -225 -11 4 -12 617 -14
617 -2 0 7 53 80 70 97 3 3 22 30 42 60 41 61 62 112 55 132 -2 7 -8 1 -12
-14z"/>
<path d="M1102 2579 c-13 -5 -20 -13 -17 -19 9 -15 36 -12 49 6 9 12 17 13 39
5 39 -15 57 -14 57 4 0 12 -12 15 -52 14 -29 0 -63 -4 -76 -10z"/>
<path d="M1790 2579 c0 -5 6 -9 13 -10 6 0 24 -2 40 -4 16 -2 27 1 27 9 0 7
-16 12 -40 13 -22 1 -40 -2 -40 -8z"/>
<path d="M1558 2560 c12 -11 26 -20 32 -20 5 0 10 -10 10 -22 0 -17 3 -19 12
-10 9 9 5 19 -17 42 -16 16 -35 30 -44 30 -11 0 -9 -5 7 -20z"/>
<path d="M1040 2542 c0 -6 -9 -14 -21 -17 -34 -11 -8 -22 39 -17 27 2 42 9 42
18 0 8 -6 14 -14 14 -8 0 -21 3 -30 6 -9 3 -16 1 -16 -4z"/>
<path d="M1379 2545 c-1 -3 -2 -9 -3 -14 0 -5 -4 -13 -8 -17 -5 -4 -8 -13 -8
-20 0 -22 30 -4 46 27 14 27 13 29 -6 29 -11 0 -21 -2 -21 -5z"/>
<path d="M2885 2482 c-14 -14 -1 -19 43 -17 69 4 72 4 72 14 0 9 -105 12 -115
3z"/>
<path d="M160 2471 c0 -6 5 -13 10 -16 6 -3 10 -17 10 -31 0 -13 5 -24 10 -24
14 0 12 16 -5 50 -16 30 -25 38 -25 21z"/>
<path d="M12 2437 c-18 -50 -14 -57 8 -13 23 45 23 46 12 46 -4 0 -13 -15 -20
-33z"/>
<path d="M1090 2426 c-79 -22 -103 -40 -136 -100 -21 -39 -8 -50 47 -39 30 6
47 16 55 31 l11 22 11 -25 c21 -47 125 -24 129 28 2 26 -1 27 -41 27 -55 0
-106 -17 -129 -43 -10 -11 -20 -17 -24 -14 -3 4 -14 2 -24 -4 -30 -15 -24 13
9 44 54 51 175 79 235 53 10 -5 17 -4 17 3 0 22 -103 33 -160 17z m98 -93 c-2
-10 -12 -19 -23 -22 -16 -3 -17 -1 -7 11 6 8 9 18 5 21 -3 4 1 7 11 7 11 0 16
-6 14 -17z"/>
<path d="M1335 2430 c4 -6 2 -17 -5 -25 -8 -10 -8 -15 0 -20 7 -4 9 -18 6 -31
-4 -13 -3 -24 1 -24 13 0 43 60 43 86 0 19 -5 24 -26 24 -15 0 -23 -4 -19 -10z"/>
<path d="M1615 2429 c-10 -15 4 -61 15 -54 13 8 13 65 1 65 -6 0 -13 -5 -16
-11z"/>
<path d="M1753 2428 c-13 -6 -23 -15 -23 -20 0 -12 18 -10 26 3 10 17 135 5
179 -17 22 -11 47 -34 58 -54 18 -33 19 -33 12 -6 -11 50 -36 72 -101 90 -71
18 -119 20 -151 4z"/>
<path d="M2230 2369 c0 -4 11 -10 25 -13 25 -6 737 3 744 10 2 2 -170 5 -383
6 -212 2 -386 0 -386 -3z"/>
<path d="M1224 2358 c-3 -4 2 -8 11 -8 9 0 13 -4 10 -10 -9 -15 28 -12 50 4
17 12 15 14 -24 18 -23 2 -45 0 -47 -4z"/>
<path d="M1725 2361 c-54 -5 -58 -7 -38 -18 26 -16 53 -17 53 -3 0 6 9 10 20
10 13 0 20 -7 20 -18 0 -19 84 -57 101 -46 19 11 8 24 -16 18 -20 -5 -24 -3
-19 9 3 9 20 15 47 15 51 1 60 -4 47 -29 -9 -16 -7 -19 14 -19 13 0 31 -3 40
-6 11 -4 16 -1 16 10 0 9 -6 16 -13 16 -8 0 -22 10 -33 21 -41 46 -90 54 -239
40z"/>
<path d="M2605 2189 l-90 -139 -132 0 c-77 0 -134 -4 -138 -10 -4 -6 44 -10
137 -10 l143 1 30 42 c103 144 175 249 175 253 0 2 -8 4 -17 3 -12 0 -50 -50
-108 -140z"/>
<path d="M1220 2275 c-55 -32 -106 -55 -122 -55 -9 0 -29 -12 -43 -26 -27 -27
-27 -27 -3 -21 13 4 48 11 78 18 44 9 130 52 130 64 0 2 -10 1 -22 -2 -22 -4
-22 -4 -4 11 26 21 16 28 -14 11z"/>
<path d="M1760 2259 c31 -21 90 -49 102 -49 19 1 -23 30 -43 30 -9 0 -22 7
-29 15 -7 8 -20 15 -29 15 -14 0 -14 -2 -1 -11z"/>
<path d="M1742 2240 c15 -23 88 -64 141 -78 54 -15 45 1 -12 22 -27 9 -70 30
-95 46 -36 23 -43 25 -34 10z"/>
<path d="M284 2229 c3 -14 13 -43 23 -65 9 -21 16 -45 14 -51 -1 -7 5 -13 13
-13 11 0 13 6 6 28 -13 43 -22 65 -43 97 -18 29 -19 29 -13 4z"/>
<path d="M644 2168 c-10 -17 -13 -88 -3 -88 9 0 24 89 16 96 -3 3 -9 -1 -13
-8z"/>
<path d="M1260 2125 c-17 -32 -19 -97 -3 -91 6 3 14 0 16 -7 2 -7 2 9 0 34 -3
28 -1 49 6 53 13 8 15 36 3 36 -5 0 -15 -11 -22 -25z"/>
<path d="M1583 2080 c-13 -5 -23 -14 -23 -20 0 -17 31 -24 50 -12 10 6 27 8
39 5 14 -4 21 -1 21 10 0 26 -44 34 -87 17z"/>
<path d="M356 2065 c-9 -23 -8 -25 9 -19 11 4 15 -1 15 -17 0 -13 9 -35 21
-49 l20 -25 -17 45 c-10 25 -23 53 -29 63 -11 16 -13 16 -19 2z"/>
<path d="M1353 2068 c-33 -9 -48 -33 -37 -62 9 -24 49 -20 80 9 15 14 36 25
46 25 11 0 18 5 16 12 -6 17 -66 26 -105 16z"/>
<path d="M632 2058 c-2 -16 -13 -18 -81 -18 -44 0 -83 -4 -86 -10 -4 -6 24
-10 76 -10 76 0 81 -1 76 -20 -6 -23 11 -28 19 -6 3 8 4 29 1 48 -2 18 -5 25
-5 16z"/>
<path d="M1202 2052 c-13 -4 -22 -9 -21 -12 5 -11 -23 -50 -36 -50 -8 0 -15
-7 -15 -15 0 -8 -4 -15 -8 -15 -5 0 -17 -8 -28 -18 -10 -10 -27 -21 -36 -25
-11 -4 -15 -12 -12 -22 4 -8 -1 -17 -10 -21 -12 -5 -13 -10 -5 -27 11 -19 12
-19 24 9 7 16 29 43 50 59 45 34 135 125 135 137 0 9 -5 9 -38 0z"/>
<path d="M2577 2043 c-4 -3 -7 -9 -7 -12 0 -3 97 -5 215 -3 129 2 215 7 215
12 0 11 -413 14 -423 3z"/>
<path d="M1614 1998 c-9 -14 8 -30 25 -23 9 4 23 8 30 9 8 2 17 8 19 15 4 13
-66 12 -74 -1z"/>
<path d="M2255 1920 c8 -12 745 -10 745 3 0 4 -169 7 -376 7 -257 0 -373 -3
-369 -10z"/>
<path d="M432 1885 c1 -35 15 -44 35 -24 16 16 66 14 103 -5 42 -20 60 -20 60
0 0 9 -6 14 -12 11 -7 -2 -29 2 -49 9 -21 7 -56 10 -80 7 -35 -4 -42 -3 -32 7
7 7 43 14 84 16 106 5 97 14 -14 14 l-96 0 1 -35z"/>
<path d="M2273 1886 c-13 -6 -23 -14 -23 -18 0 -11 28 -10 35 1 13 22 63 22
103 1 l41 -21 40 23 c37 21 42 22 73 9 32 -14 54 -15 143 -9 57 4 55 -4 -32
-115 -18 -23 -33 -45 -33 -49 0 -18 17 -5 40 30 14 20 30 41 37 45 7 4 13 13
13 20 1 7 9 22 20 35 14 17 25 21 43 17 16 -4 40 1 67 15 52 26 45 38 -9 17
-36 -15 -44 -15 -83 -1 -36 13 -51 14 -96 3 -42 -10 -60 -10 -92 1 -32 11 -50
11 -92 1 -39 -9 -60 -10 -81 -2 -35 13 -84 12 -114 -3z"/>
<path d="M2890 1882 c0 -5 -66 -76 -147 -158 -178 -180 -255 -265 -248 -272 6
-7 175 167 175 180 0 4 7 8 14 8 8 0 34 23 58 51 24 27 71 80 105 116 52 55
65 64 77 54 17 -14 68 -11 73 5 2 6 -10 9 -31 8 -20 -2 -38 1 -41 6 -7 12 -35
13 -35 2z"/>
<path d="M1033 1774 c-3 -9 -1 -19 5 -23 12 -7 20 -64 28 -193 2 -38 9 -87 15
-110 5 -24 12 -54 14 -67 4 -26 28 -47 34 -30 2 6 0 14 -5 18 -5 3 -10 12 -12
19 -1 7 -4 20 -6 30 -1 9 -6 24 -9 32 -10 27 -16 127 -7 136 12 14 20 74 10
74 -6 0 -10 -4 -10 -10 0 -5 -4 -10 -9 -10 -14 0 -26 123 -12 128 19 6 12 22
-9 22 -11 0 -23 -7 -27 -16z"/>
<path d="M1315 1758 c-18 -11 -64 -18 -115 -20 -30 0 -50 -15 -50 -35 0 -17 5
-16 100 12 63 19 423 30 452 14 10 -5 37 -14 60 -19 24 -5 56 -12 71 -16 l28
-7 -23 26 c-30 32 -76 38 -310 42 -97 2 -180 5 -185 8 -5 3 -17 1 -28 -5z"/>
<path d="M620 1746 c0 -8 4 -17 10 -21 5 -3 7 -11 4 -18 -6 -18 21 -52 34 -43
17 11 15 29 -3 22 -8 -3 -15 -1 -15 4 0 5 9 12 20 15 11 3 20 11 20 16 0 6 5
7 10 4 6 -3 10 -2 10 4 0 15 -34 31 -64 31 -16 0 -26 -6 -26 -14z"/>
<path d="M453 1743 c23 -6 22 -20 -3 -33 -11 -6 -20 -20 -20 -30 0 -25 18 -26
27 -2 9 22 34 41 56 42 29 0 19 17 -14 24 -37 7 -75 7 -46 -1z"/>
<path d="M540 1740 c0 -5 4 -10 9 -10 5 0 14 -12 19 -27 l10 -28 1 28 c1 15 6
27 11 27 6 0 10 5 10 10 0 6 -13 10 -30 10 -16 0 -30 -4 -30 -10z"/>
<path d="M1932 1738 c-14 -14 -16 -58 -3 -58 8 0 25 60 18 66 -2 2 -9 -2 -15
-8z"/>
<path d="M715 1688 c-4 -18 -11 -38 -16 -43 -4 -6 -4 -17 1 -25 8 -12 10 -10
10 8 0 12 4 22 9 22 5 0 11 9 14 20 7 28 25 25 20 -2 -3 -22 11 -57 20 -48 2
3 7 24 11 48 5 37 4 42 -13 42 -11 0 -26 3 -34 6 -11 4 -17 -4 -22 -28z"/>
<path d="M590 1655 c-13 -34 -13 -35 6 -35 10 0 14 6 11 14 -3 7 -1 18 5 24 6
6 6 12 -1 16 -6 4 -15 -4 -21 -19z"/>
<path d="M537 1613 c-5 -29 0 -53 13 -53 4 0 8 18 8 40 1 45 -13 54 -21 13z"/>
<path d="M708 1599 c-20 -23 -33 -29 -48 -24 -16 5 -19 3 -14 -12 5 -15 2 -14
-14 4 -19 21 -21 21 -33 5 -7 -9 -9 -14 -5 -10 5 4 15 -4 23 -19 12 -24 12
-29 -2 -39 -11 -8 -14 -20 -10 -37 10 -39 -22 -52 -75 -31 -22 9 -40 20 -40
25 0 13 13 11 38 -7 14 -10 32 -14 48 -10 30 8 32 24 2 22 -32 -3 -41 4 -27
20 9 11 7 14 -10 14 -25 0 -81 -27 -81 -38 0 -11 77 -48 116 -56 34 -8 43 4
65 82 13 44 52 82 84 82 21 0 75 28 75 39 0 11 -39 3 -60 -12 -12 -9 -13 -9
-2 3 6 8 12 18 12 22 0 15 -15 7 -42 -23z"/>
<path d="M642 1608 c3 -7 15 -15 27 -16 16 -3 22 1 19 10 -3 7 -15 15 -27 16
-16 3 -22 -1 -19 -10z"/>
<path d="M2526 1580 c-14 -22 -23 -40 -19 -40 12 1 66 80 55 80 -5 0 -21 -18
-36 -40z"/>
<path d="M838 1605 c-3 -3 -3 -17 0 -31 3 -19 7 -22 13 -12 17 27 6 62 -13 43z"/>
<path d="M2267 1564 c7 -3 10 -11 7 -18 -3 -7 7 -18 21 -26 14 -7 25 -18 25
-23 0 -17 50 -77 64 -77 32 0 28 -133 -5 -169 -11 -11 -19 -26 -19 -34 0 -7
-5 -18 -12 -25 -7 -7 -9 -12 -4 -12 34 0 117 208 87 218 -6 2 -11 7 -11 12 0
15 38 -1 61 -26 12 -13 28 -24 35 -24 7 0 21 -13 30 -30 18 -29 44 -48 44 -30
0 17 -65 83 -109 112 -28 17 -59 28 -81 28 -33 0 -39 4 -55 40 -21 47 -58 90
-77 89 -9 0 -10 -2 -1 -5z"/>
<path d="M843 1532 c-13 -2 -23 -9 -23 -16 0 -18 24 -66 33 -66 4 0 7 -11 7
-24 0 -27 15 -43 22 -23 7 19 0 119 -9 126 -4 4 -18 5 -30 3z m25 -32 c-1 -30
-11 -39 -23 -20 -5 9 11 50 20 50 2 0 3 -13 3 -30z"/>
<path d="M1026 1495 c-4 -11 -12 -28 -17 -37 -6 -12 -6 -18 1 -18 14 0 32 38
27 58 -3 15 -5 14 -11 -3z"/>
<path d="M896 1384 c-3 -9 -6 -24 -6 -34 0 -11 -24 -46 -53 -78 -29 -33 -65
-82 -80 -110 -15 -28 -42 -66 -60 -85 -102 -109 -141 -147 -148 -147 -5 0 -9
10 -9 23 -1 21 -1 21 -12 3 -8 -15 -8 -21 0 -24 7 -2 9 -8 6 -13 -8 -13 45 0
74 19 12 8 22 17 22 21 0 12 92 111 102 111 6 0 8 -12 5 -30 -5 -22 -3 -30 8
-30 11 0 15 12 16 43 1 55 13 93 27 90 7 -2 12 9 12 25 0 40 88 133 118 125
18 -4 22 -12 22 -49 0 -34 3 -42 15 -38 20 8 19 -13 0 -33 -13 -12 -13 -18 -3
-31 10 -12 10 -14 1 -8 -7 4 -13 2 -13 -4 0 -6 7 -13 15 -16 8 -4 12 -10 9
-16 -6 -10 11 -89 28 -123 5 -12 10 -30 12 -40 3 -21 36 -35 36 -15 0 6 -4 8
-10 5 -5 -3 -10 -2 -10 4 0 5 6 12 13 14 10 4 10 6 0 6 -7 1 -13 9 -13 19 0
10 -4 22 -9 27 -4 6 -11 32 -15 60 -6 46 -5 48 10 30 18 -23 20 -31 -22 125
-29 106 -32 113 -44 105 -6 -3 -13 12 -16 35 -7 45 -19 58 -28 34z"/>
<path d="M2040 1375 c0 -3 7 -17 16 -30 20 -30 44 -123 51 -195 5 -63 58 -157
119 -212 20 -18 43 -40 53 -48 9 -8 29 -16 44 -18 16 -1 38 -7 50 -14 12 -7
25 -11 29 -10 11 3 -40 -102 -52 -106 -5 -2 -10 -14 -10 -26 0 -24 -33 -66
-53 -67 -7 0 -1 -5 13 -10 22 -9 23 -12 9 -22 -18 -13 -38 -64 -21 -53 5 3 3
-22 -6 -57 -23 -91 -69 -227 -74 -222 -5 5 -8 -13 -9 -48 0 -9 -4 -17 -8 -17
-4 0 -8 -7 -9 -15 -1 -8 -3 -22 -4 -30 -1 -8 -5 -15 -10 -15 -4 0 -8 -7 -8
-15 0 -8 -4 -15 -10 -15 -5 0 -10 -7 -10 -16 0 -8 5 -12 10 -9 6 3 10 1 10 -4
0 -14 -37 -14 -45 -1 -11 17 -22 11 -27 -15 -5 -26 8 -36 14 -11 3 13 6 13 22
0 20 -14 20 -14 0 -29 -10 -8 -14 -15 -7 -15 7 0 10 -7 7 -15 -4 -8 -2 -15 3
-15 10 0 35 52 70 142 10 28 24 48 33 48 13 0 13 1 0 10 -11 7 -12 12 -4 20 8
8 20 4 43 -15 41 -35 44 -63 4 -38 l-28 17 28 -30 c36 -40 34 -50 -5 -23 -18
12 -6 -4 27 -35 32 -31 62 -56 65 -56 3 0 16 -9 30 -20 33 -26 49 -26 19 0
-18 14 -20 19 -8 20 8 0 21 -6 28 -13 11 -10 11 -8 1 11 -9 19 -17 22 -36 18
-19 -5 -32 0 -54 23 -17 16 -30 38 -30 48 1 28 25 53 53 53 13 0 27 7 30 15 5
11 0 13 -23 9 -22 -5 -31 -2 -39 15 -7 11 -26 28 -44 37 l-32 15 38 -33 c34
-31 48 -58 30 -58 -5 0 -24 14 -43 30 -19 16 -38 30 -43 30 -9 0 1 43 21 90
16 35 17 42 21 70 3 28 19 44 33 34 8 -5 6 -2 -4 7 -9 9 -15 19 -12 21 2 3 18
57 35 119 17 63 34 118 38 124 5 5 16 34 27 63 16 48 54 100 54 75 0 -5 11
-15 25 -21 35 -16 114 -75 115 -85 0 -5 -10 -5 -22 -1 -18 5 -15 0 12 -22 19
-16 43 -37 53 -48 9 -11 20 -16 23 -13 4 3 -11 22 -32 41 -27 25 -34 36 -22
36 9 0 20 -5 23 -10 4 -6 14 -9 22 -8 36 6 33 -103 -3 -139 -22 -22 -17 -36
11 -29 14 4 25 2 25 -3 0 -12 -29 -23 -41 -15 -5 3 -9 -2 -9 -12 0 -12 6 -15
25 -12 31 6 32 0 3 -12 -23 -9 -23 -9 2 -10 20 0 22 -2 10 -10 -20 -13 -40
-13 -40 0 0 13 -37 50 -50 50 -12 0 -3 48 13 68 5 6 6 12 1 12 -5 0 -3 4 5 9
11 7 8 14 -15 34 -16 14 -31 23 -34 20 -3 -2 6 -13 20 -23 14 -10 21 -22 17
-26 -4 -4 -15 0 -25 9 -20 19 -32 22 -32 9 0 -5 11 -15 25 -22 20 -11 23 -18
18 -39 -8 -36 -9 -36 -38 -17 -32 21 -33 10 -1 -15 22 -17 23 -23 15 -60 -6
-23 -8 -47 -6 -53 3 -6 8 10 12 37 4 26 11 47 16 47 5 0 9 -4 9 -9 0 -5 8 -11
17 -13 10 -2 18 -12 18 -23 0 -15 6 -19 24 -17 19 3 22 0 17 -13 -3 -9 -6 -19
-6 -21 0 -2 -7 -4 -15 -4 -8 0 -15 5 -15 10 0 6 -4 10 -10 10 -5 0 -10 -7 -10
-15 0 -10 10 -15 31 -15 19 0 28 -4 24 -11 -4 -6 -19 -7 -36 -4 -19 4 -29 3
-29 -5 0 -6 4 -9 9 -5 5 3 12 1 15 -3 9 -15 56 -1 57 17 0 11 2 12 6 3 3 -7 0
-19 -7 -26 -6 -8 -7 -17 -3 -19 5 -3 8 -27 7 -54 -1 -43 -3 -48 -22 -46 -14 2
-22 -3 -22 -12 0 -9 8 -14 22 -12 20 2 22 -2 22 -41 -1 -26 3 -42 11 -42 9 0
10 50 7 201 -4 163 -2 203 9 210 10 6 11 9 2 9 -9 0 -13 17 -13 50 0 29 5 50
11 50 6 0 7 5 2 13 -4 6 -8 35 -9 62 -4 275 -6 328 -14 310 -5 -11 -9 -58 -9
-104 -1 -97 -19 -211 -33 -211 -5 0 -16 6 -23 13 -79 72 -162 120 -260 149
-56 17 -79 30 -115 67 -80 83 -104 123 -114 199 -15 109 -19 128 -31 142 -7 8
-11 23 -10 33 2 9 -1 17 -6 17 -5 0 -9 7 -9 15 0 8 -7 15 -15 15 -8 0 -15 -2
-15 -5z"/>
<path d="M980 1326 c0 -8 7 -17 16 -20 8 -3 12 -11 9 -16 -4 -6 2 -19 12 -28
11 -9 23 -29 27 -44 3 -16 11 -28 16 -28 14 0 12 18 -4 48 -8 15 -22 44 -32
65 -16 36 -44 51 -44 23z"/>
<path d="M1116 1318 c5 -8 2 -9 -9 -5 -10 3 -17 2 -17 -3 0 -6 5 -10 10 -10 6
0 10 -7 10 -16 0 -8 7 -22 15 -30 13 -14 15 -10 15 30 0 35 -4 46 -16 46 -9 0
-12 -5 -8 -12z"/>
<path d="M526 1293 c-9 -31 10 -142 27 -161 9 -10 17 -26 17 -35 0 -9 4 -17 9
-17 10 0 3 39 -11 56 -4 6 -11 48 -15 93 -6 78 -16 101 -27 64z"/>
<path d="M1250 1293 c0 -5 11 -18 24 -31 30 -28 45 -11 16 18 -20 20 -40 27
-40 13z"/>
<path d="M2623 1258 c16 -25 29 -33 53 -34 25 0 41 -10 70 -42 20 -23 46 -42
56 -42 11 0 16 5 13 10 -4 6 -10 8 -15 5 -4 -3 -14 8 -21 24 -7 16 -17 27 -21
25 -4 -3 -8 -1 -8 5 0 5 5 13 11 17 15 9 -98 64 -133 64 l-27 0 22 -32z"/>
<path d="M1198 1235 c-4 -20 -3 -23 8 -14 7 6 17 8 22 6 4 -3 14 -2 22 4 12 7
10 9 -7 9 -13 0 -23 5 -23 10 0 21 -18 9 -22 -15z"/>
<path d="M2888 1221 c-32 -22 -56 -53 -52 -66 5 -12 -32 -55 -47 -55 -12 0
-69 58 -69 69 0 7 -53 41 -64 41 -6 0 3 -50 10 -59 2 -2 10 2 19 9 19 16 20
-3 1 -23 -15 -14 -16 -40 -3 -53 4 -4 7 4 7 17 0 14 5 30 12 37 14 14 32 16
24 3 -6 -9 14 -29 46 -46 12 -5 20 -14 20 -20 -2 -19 -41 -16 -59 4 -27 32
-32 26 -28 -31 7 -92 17 -148 26 -148 12 0 11 10 -3 86 -11 62 -6 93 11 65 14
-21 59 -5 75 28 22 41 61 64 97 56 22 -5 34 -17 49 -50 27 -60 36 -62 35 -9
-2 48 -11 66 -24 45 -6 -10 -10 -9 -14 4 -4 9 -3 13 3 10 6 -3 10 -2 10 3 0
16 -13 22 -26 11 -9 -8 -11 -5 -7 10 7 26 -12 28 -26 4 -9 -16 -12 -16 -22 -3
-8 11 -12 12 -16 2 -2 -6 -9 -9 -14 -6 -14 8 30 44 53 44 10 0 34 -7 53 -14
28 -12 35 -12 35 -2 0 37 -76 63 -112 37z"/>
<path d="M435 1176 c4 -25 2 -53 -4 -64 -7 -13 -6 -30 4 -58 10 -29 15 -35 20
-22 3 9 16 18 27 21 16 4 19 10 13 24 -5 10 -18 46 -29 80 -24 73 -39 82 -31
19z m37 -78 c6 -17 -1 -38 -13 -38 -5 0 -9 11 -9 25 0 26 14 34 22 13z"/>
<path d="M1077 1184 c-3 -4 0 -13 8 -20 7 -8 15 -19 18 -26 4 -10 7 -10 18 -1
11 11 9 16 -9 33 -23 22 -26 23 -35 14z"/>
<path d="M309 1108 c-1 -13 -1 -29 0 -35 1 -7 -3 -13 -10 -13 -8 0 -8 -4 1
-15 10 -12 9 -15 -6 -16 -11 0 -14 -3 -8 -5 8 -3 10 -20 7 -44 -4 -26 -2 -40
6 -40 6 0 11 14 11 30 0 22 5 30 18 31 10 0 12 3 5 6 -7 2 -13 18 -13 34 0 18
5 27 13 25 6 -1 9 -1 5 1 -5 3 -8 18 -8 34 0 34 -19 40 -21 7z"/>
<path d="M213 1078 c-5 -23 -7 -52 -4 -63 3 -12 8 5 13 39 9 71 3 86 -9 24z"/>
<path d="M2926 1048 c-3 -13 -1 -27 4 -32 14 -14 13 -29 -1 -20 -7 4 -10 -1
-7 -11 5 -26 28 -31 28 -6 0 12 6 21 12 21 7 0 3 7 -9 15 -14 10 -19 22 -16
35 3 11 3 20 0 20 -2 0 -7 -10 -11 -22z"/>
<path d="M108 1034 c-5 -28 3 -124 11 -124 7 0 3 131 -4 138 -2 2 -5 -4 -7
-14z"/>
<path d="M495 1030 c9 -15 -20 -40 -47 -40 -18 0 -29 -9 -41 -35 -19 -39 -22
-65 -8 -65 5 0 11 13 14 28 5 22 17 33 59 52 29 13 54 25 56 26 7 5 -19 44
-29 44 -6 0 -7 -5 -4 -10z"/>
<path d="M2740 991 c0 -23 4 -41 9 -41 5 0 8 -15 7 -33 -2 -18 1 -41 5 -52 6
-17 8 -15 9 10 1 17 3 35 5 40 1 6 3 23 3 39 2 21 6 27 18 22 9 -3 14 -1 12 5
-2 6 -8 10 -13 9 -5 -1 -12 7 -16 17 -6 13 -8 8 -9 -17 -1 -32 -2 -33 -11 -12
-5 13 -7 28 -4 32 3 5 1 11 -5 15 -6 4 -10 -9 -10 -34z"/>
<path d="M1110 1004 c0 -9 9 -18 20 -21 11 -3 17 -9 14 -14 -3 -5 2 -9 11 -9
14 0 13 4 -5 30 -23 33 -40 39 -40 14z"/>
<path d="M70 952 c0 -23 4 -42 8 -42 9 0 9 67 -1 76 -4 4 -7 -11 -7 -34z"/>
<path d="M2978 985 c-3 -3 -3 -24 -1 -46 4 -37 2 -41 -14 -35 -17 6 -17 5 0
-8 9 -7 17 -18 17 -25 0 -6 3 -11 8 -11 4 0 7 27 6 60 -1 59 -5 75 -16 65z"/>
<path d="M490 922 c0 -5 -9 -19 -19 -31 -13 -15 -20 -18 -24 -9 -3 10 -7 10
-17 1 -10 -9 -9 -15 5 -29 17 -17 19 -16 51 20 37 42 42 56 19 56 -8 0 -15 -4
-15 -8z"/>
<path d="M627 910 c-6 -21 -9 -22 -17 -10 -8 13 -10 12 -10 -2 0 -10 -6 -18
-14 -18 -17 0 -31 -18 -22 -27 3 -4 15 2 26 12 11 10 23 15 27 12 3 -4 -4 -15
-15 -26 -29 -24 -28 -37 0 -17 17 12 25 13 36 3 13 -10 14 -9 3 10 -10 19 -9
22 4 17 8 -4 15 -1 15 5 0 6 -4 11 -9 11 -5 0 -11 12 -13 28 l-3 27 -8 -25z"/>
<path d="M767 914 c-3 -3 -3 -12 0 -20 3 -8 -1 -14 -8 -14 -10 0 -10 -3 -1
-12 7 -7 12 -22 12 -34 0 -13 5 -26 11 -30 7 -4 9 11 4 52 -8 64 -9 67 -18 58z"/>
<path d="M263 893 c3 -10 8 -30 11 -45 7 -31 30 -37 40 -12 4 11 -1 18 -14 21
-11 3 -18 9 -15 13 3 5 1 11 -5 15 -6 4 -8 11 -5 16 4 5 1 9 -5 9 -6 0 -9 -8
-7 -17z"/>
<path d="M195 858 c4 -13 7 -43 8 -66 2 -33 6 -42 20 -42 18 0 22 11 10 24 -5
4 -8 11 -8 14 -2 30 -18 82 -26 87 -6 4 -8 -2 -4 -17z"/>
<path d="M387 845 c-3 -17 0 -25 9 -25 8 0 14 -4 14 -10 0 -5 5 -10 11 -10 13
0 2 39 -16 57 -10 10 -14 7 -18 -12z"/>
<path d="M684 841 c-26 -23 -29 -31 -19 -44 7 -10 16 -17 21 -17 4 0 3 5 -4
12 -20 20 -13 32 7 14 19 -17 19 -17 14 2 -3 13 1 21 10 24 9 2 12 9 8 20 -5
14 -10 13 -37 -11z"/>
<path d="M506 821 c-34 -34 -43 -39 -72 -34 -23 4 -34 2 -34 -6 0 -7 8 -11 18
-9 12 2 17 -4 17 -22 0 -19 -6 -26 -25 -28 -32 -4 -70 -23 -70 -35 0 -5 11 -2
24 6 13 9 42 16 65 15 37 0 41 -3 35 -20 -5 -16 -2 -19 14 -14 16 5 20 2 20
-19 0 -22 -5 -25 -35 -25 -39 0 -103 -24 -103 -39 0 -6 5 -11 10 -11 6 0 10
-7 10 -15 0 -8 4 -15 8 -15 16 0 21 13 12 31 -12 22 -6 26 54 34 36 5 47 4 41
-5 -4 -7 -9 -35 -11 -63 -2 -29 -6 -67 -9 -84 -3 -18 -1 -33 4 -33 4 0 11 24
14 53 12 99 17 129 28 148 12 23 -4 59 -26 59 -8 0 -12 6 -9 15 9 22 -5 38
-22 24 -11 -9 -14 -9 -14 0 0 14 29 44 80 83 24 19 32 30 24 38 -7 7 -22 -2
-48 -29z"/>
<path d="M332 828 c-7 -9 -7 -18 3 -31 12 -17 13 -16 18 2 7 27 -7 46 -21 29z"/>
<path d="M2785 783 c8 -78 16 -81 13 -5 -2 34 -7 62 -11 62 -5 0 -6 -26 -2
-57z"/>
<path d="M2857 808 c3 -18 10 -37 15 -43 5 -6 7 0 4 15 -2 14 -5 33 -5 43 -1
9 -5 17 -11 17 -5 0 -7 -14 -3 -32z"/>
<path d="M115 793 c0 -21 6 -38 14 -41 12 -4 12 3 1 76 0 1 -3 2 -7 2 -5 0 -8
-17 -8 -37z"/>
<path d="M2757 823 c-2 -5 -1 -33 3 -63 l8 -55 -1 63 c0 61 -2 70 -10 55z"/>
<path d="M80 772 c0 -28 5 -54 10 -57 7 -5 9 11 5 47 -8 69 -15 74 -15 10z"/>
<path d="M2937 802 c-16 -17 -16 -67 -2 -167 2 -11 4 -32 4 -47 1 -21 6 -28
21 -28 11 0 20 -5 20 -11 0 -6 -9 -9 -20 -6 -17 4 -18 1 -14 -27 14 -83 15
-84 35 -11 10 39 19 71 19 72 0 1 -10 3 -22 5 -22 3 -23 6 -23 120 0 65 0 118
-1 118 0 0 -8 -8 -17 -18z"/>
<path d="M2726 733 c2 -101 4 -113 13 -83 8 30 2 160 -8 160 -3 0 -6 -35 -5
-77z"/>
<path d="M257 784 c-4 -4 -3 -12 1 -18 8 -13 9 -18 11 -46 0 -11 6 -20 11 -20
6 0 8 10 5 23 -4 13 -7 31 -9 40 -3 20 -11 29 -19 21z"/>
<path d="M714 778 c-4 -6 -1 -16 7 -22 8 -6 15 -16 16 -21 1 -6 22 -46 47 -90
42 -73 83 -153 117 -230 12 -28 13 -28 17 -8 3 20 -26 85 -89 204 -10 20 -21
56 -23 80 -2 24 -4 48 -5 53 -1 4 -10 6 -21 3 -10 -3 -27 1 -37 9 -12 9 -13
13 -5 14 7 0 10 5 7 10 -8 13 -22 13 -31 -2z"/>
<path d="M2435 781 c11 -5 29 -19 40 -31 23 -25 55 -44 55 -32 0 13 -82 72
-99 71 -11 0 -10 -3 4 -8z"/>
<path d="M2442 707 c15 -14 37 -32 48 -40 18 -12 21 -21 15 -47 -5 -23 -11
-30 -22 -25 -13 4 -13 3 -4 -9 6 -7 9 -21 5 -30 -3 -9 -4 -16 -2 -16 3 0 18
34 33 75 28 73 37 85 50 65 9 -15 25 -12 19 4 -9 23 -35 28 -49 9 -7 -10 -11
-21 -9 -25 11 -17 -15 -6 -42 18 -39 34 -78 54 -42 21z"/>
<path d="M1650 703 c-49 -34 -78 -65 -74 -78 4 -9 13 -5 32 14 15 14 26 29 25
32 -1 4 9 10 22 13 14 4 25 13 25 21 0 19 0 19 -30 -2z"/>
<path d="M2800 706 c-37 -13 -50 -40 -30 -60 10 -8 12 -6 7 11 -7 31 11 40 23
11 l11 -23 -5 23 c-4 19 1 24 25 29 16 3 29 9 29 14 0 12 -17 10 -60 -5z"/>
<path d="M1538 684 c-16 -8 -28 -19 -28 -25 0 -6 -4 -8 -9 -5 -5 3 -8 -2 -7
-12 1 -11 -5 -16 -16 -14 -10 2 -18 -2 -18 -8 0 -23 37 -7 72 31 21 23 37 43
36 45 -2 1 -15 -4 -30 -12z"/>
<path d="M127 684 c-7 -8 3 -37 17 -46 7 -5 7 -8 -2 -8 -7 0 -10 -5 -7 -10 4
-6 11 -8 16 -5 13 9 11 43 -3 48 -10 4 -10 6 0 6 7 1 10 6 7 11 -7 11 -19 13
-28 4z"/>
<path d="M270 676 c0 -7 13 -13 30 -13 37 0 35 19 -3 23 -17 2 -27 -2 -27 -10z"/>
<path d="M227 674 c-4 -4 -4 -11 0 -17 3 -6 7 -30 9 -55 3 -48 7 -57 23 -47 7
4 8 13 3 23 -5 9 -7 36 -6 60 2 39 -10 54 -29 36z"/>
<path d="M1393 640 c-23 -9 -32 -30 -13 -30 6 0 10 4 10 9 0 4 15 13 33 19 20
6 25 10 12 10 -11 1 -30 -3 -42 -8z"/>
<path d="M2838 639 c-15 -4 -29 -4 -32 -1 -3 3 -6 -2 -6 -12 0 -13 5 -16 20
-11 11 3 38 6 60 7 22 0 38 4 35 8 -7 12 -48 17 -77 9z"/>
<path d="M2618 604 c-10 -19 -18 -45 -17 -57 0 -15 5 -10 15 18 8 22 19 44 24
49 12 12 13 26 3 26 -5 0 -16 -16 -25 -36z"/>
<path d="M538 599 c3 -22 7 -27 13 -18 13 21 11 49 -4 49 -9 0 -12 -10 -9 -31z"/>
<path d="M1200 623 c0 -13 136 -76 151 -71 7 2 -20 21 -62 41 -78 38 -89 42
-89 30z"/>
<path d="M277 608 c6 -7 9 -21 8 -30 -2 -10 2 -18 9 -18 8 0 11 10 8 30 -3 18
-10 30 -19 30 -11 0 -13 -4 -6 -12z"/>
<path d="M143 603 c-8 -3 -9 -13 -2 -36 5 -18 9 -33 9 -34 0 -2 -13 -3 -30 -3
-16 0 -30 -4 -30 -9 0 -4 18 -8 40 -8 22 0 43 4 46 8 3 5 0 9 -6 9 -7 0 -10 6
-7 13 3 8 1 20 -3 28 -5 8 -5 16 2 20 13 8 -2 18 -19 12z"/>
<path d="M1519 568 c-7 -18 -15 -37 -17 -43 -2 -5 7 3 21 18 14 16 23 35 20
43 -7 20 -9 18 -24 -18z"/>
<path d="M2803 590 c-5 -6 -13 -7 -48 -9 -25 -1 -26 -3 -19 -43 4 -24 6 -53 6
-65 -1 -14 4 -23 13 -23 14 0 17 41 4 65 -10 20 -4 50 11 51 8 0 18 2 23 4 17
6 29 8 78 9 31 1 48 5 44 11 -6 10 -101 10 -112 0z"/>
<path d="M564 553 c0 -56 -15 -147 -25 -157 -15 -16 -10 -26 12 -26 15 0 19 5
15 15 -5 15 18 122 29 133 3 3 5 -12 5 -32 0 -30 3 -37 15 -32 11 4 15 -2 15
-27 0 -24 3 -28 10 -17 8 13 11 12 23 -4 12 -16 15 -16 20 -4 3 9 -7 31 -24
51 -16 19 -40 58 -54 86 -15 28 -29 51 -34 51 -4 0 -7 -17 -7 -37z"/>
<path d="M1452 550 c-13 -26 -15 -40 -8 -40 7 0 20 16 29 35 20 41 20 45 8 45
-5 0 -18 -18 -29 -40z"/>
<path d="M195 548 c1 -18 5 -32 8 -30 4 1 7 4 7 7 0 3 0 16 0 30 0 14 -4 25
-8 25 -5 0 -8 -15 -7 -32z"/>
<path d="M660 545 c-13 -14 -21 -27 -18 -30 2 -3 17 9 33 25 16 17 24 30 19
30 -6 0 -21 -11 -34 -25z"/>
<path d="M428 552 c-23 -3 -50 -32 -29 -32 5 0 14 -20 20 -45 6 -25 16 -45 21
-45 6 0 10 -10 10 -22 0 -17 3 -19 9 -9 9 15 4 49 -12 69 -5 6 -6 12 -2 12 5
0 0 9 -10 20 -20 22 -13 36 20 42 29 5 5 14 -27 10z"/>
<path d="M753 533 c6 -13 13 -23 16 -23 12 1 55 40 44 40 -6 0 -15 -4 -18 -10
-3 -5 -14 -10 -23 -10 -15 1 -15 2 1 14 17 13 16 14 -6 12 -21 -1 -23 -4 -14
-23z"/>
<path d="M293 474 c3 -42 11 -82 17 -88 9 -8 10 -1 5 31 -4 23 -7 63 -7 88 0
25 -4 45 -10 45 -7 0 -9 -26 -5 -76z"/>
<path d="M950 536 c0 -2 16 -13 35 -25 19 -11 35 -16 35 -11 0 5 -13 16 -30
25 -30 15 -40 18 -40 11z"/>
<path d="M2803 522 c-13 -2 -23 -8 -23 -14 0 -5 7 -7 16 -4 9 3 27 6 40 6 13
0 24 4 24 8 0 8 -19 9 -57 4z"/>
<path d="M247 504 c-8 -8 4 -117 15 -131 5 -7 5 -14 -2 -18 -6 -3 -7 -12 -3
-18 4 -6 6 -28 4 -49 -2 -26 2 -38 11 -38 10 0 9 -3 -2 -10 -17 -11 -7 -25 13
-17 10 4 17 52 7 52 -1 0 -3 18 -4 40 -1 22 -6 73 -10 113 -8 68 -16 89 -29
76z"/>
<path d="M104 475 c3 -16 7 -45 8 -62 1 -18 5 -33 9 -33 11 0 -1 103 -13 115
-7 7 -8 0 -4 -20z"/>
<path d="M144 473 c3 -16 6 -50 8 -78 2 -39 0 -50 -12 -50 -8 -1 -24 -6 -35
-13 -17 -11 -12 -11 30 -6 53 7 68 14 47 21 -6 3 -9 9 -6 15 3 5 3 38 -1 74
-5 47 -11 64 -22 64 -11 0 -13 -7 -9 -27z"/>
<path d="M2370 475 c14 -15 34 -32 45 -37 16 -9 16 -6 -5 17 -14 15 -34 32
-45 37 -16 9 -16 6 5 -17z"/>
<path d="M2573 440 c-24 -89 -25 -106 -8 -120 14 -12 18 -11 26 1 5 8 8 21 8
29 -1 11 -3 10 -6 -2 -5 -19 -18 -24 -27 -10 -2 4 2 32 10 62 8 30 13 62 11
70 -1 8 -8 -5 -14 -30z"/>
<path d="M2062 439 c-20 -51 -32 -96 -32 -117 0 -13 -6 -22 -16 -22 -17 0 -15
-21 3 -27 6 -2 18 30 28 74 10 43 23 84 28 91 5 7 7 15 4 19 -4 3 -10 -5 -15
-18z"/>
<path d="M745 433 c-11 -8 -29 -21 -39 -29 -11 -7 -17 -16 -13 -20 3 -3 13 1
22 10 9 8 26 22 37 31 12 8 20 17 17 19 -2 2 -13 -2 -24 -11z"/>
<path d="M1045 389 c0 -32 3 -59 8 -59 10 0 9 107 -1 114 -4 2 -8 -22 -7 -55z"/>
<path d="M2834 425 c3 -11 6 -30 6 -42 0 -13 5 -23 10 -23 7 0 8 13 4 35 l-6
35 41 -2 c23 -1 44 2 48 5 3 4 -5 7 -18 8 -13 0 -39 1 -57 2 -29 2 -32 -1 -28
-18z"/>
<path d="M337 399 c4 -30 2 -40 -8 -37 -8 1 -15 0 -16 -5 -4 -10 2 -10 42 -3
19 4 35 11 35 16 0 4 -9 6 -20 3 -17 -5 -20 0 -20 31 0 20 -4 36 -9 36 -4 0
-6 -18 -4 -41z"/>
<path d="M2744 423 c3 -10 8 -47 12 -83 3 -36 11 -71 18 -79 8 -11 8 -15 -2
-18 -16 -6 -5 -23 15 -23 9 0 13 6 10 15 -4 8 -9 46 -13 85 -3 39 -7 77 -8 83
0 7 4 13 9 15 9 3 18 -44 28 -148 l4 -45 74 -3 c40 -2 70 1 65 5 -4 4 -24 8
-44 8 -36 1 -37 1 -44 49 -10 69 -21 72 -13 3 6 -48 5 -56 -7 -52 -11 4 -17
30 -23 88 -4 45 -7 90 -7 100 1 13 -8 17 -39 17 -34 0 -39 -3 -35 -17z"/>
<path d="M2378 379 c25 -26 40 -51 37 -60 -3 -9 11 -24 40 -42 50 -29 55 -31
55 -19 0 5 -18 17 -40 27 -42 19 -42 20 -23 88 2 9 0 17 -6 17 -6 0 -11 -9
-11 -20 0 -28 -8 -25 -55 17 l-40 38 43 -46z"/>
<path d="M2440 410 c0 -5 7 -10 15 -10 8 0 15 -4 15 -10 0 -5 8 -10 17 -10 9
0 25 -7 35 -17 10 -9 18 -11 18 -5 0 5 -21 22 -46 36 -53 29 -54 30 -54 16z"/>
<path d="M2974 294 c12 -180 25 -208 21 -44 -3 101 -8 146 -16 149 -9 3 -10
-22 -5 -105z"/>
<path d="M580 382 c0 -10 51 -24 59 -16 7 6 -2 12 -32 19 -16 4 -27 3 -27 -3z"/>
<path d="M795 373 c-31 -16 -45 -31 -45 -47 0 -6 13 3 29 18 18 17 31 24 35
17 4 -6 5 -15 2 -20 -6 -10 49 -61 65 -61 5 0 12 7 15 15 4 8 13 15 21 15 11
0 8 9 -11 31 -14 17 -24 34 -22 37 9 14 -60 10 -89 -5z m84 -17 c12 -14 5 -46
-9 -46 -11 0 -40 29 -40 39 0 23 32 28 49 7z"/>
<path d="M923 374 c-3 -9 -2 -19 3 -23 10 -7 26 -33 64 -106 14 -27 38 -69 53
-93 15 -24 32 -54 37 -67 11 -29 30 -33 30 -7 0 11 -9 45 -20 77 -11 32 -21
77 -21 99 -1 39 -2 39 -9 11 -4 -16 -5 -43 -3 -60 l4 -30 -25 29 c-13 16 -32
49 -41 73 -9 24 -21 43 -26 43 -10 0 -34 49 -31 63 3 14 -9 7 -15 -9z"/>
<path d="M435 364 c-16 -8 -34 -20 -40 -26 -6 -6 -1 -6 13 1 12 6 22 9 22 5 0
-3 6 -2 13 4 12 10 18 12 37 12 6 0 10 5 10 10 0 14 -20 12 -55 -6z"/>
<path d="M1 310 c0 -33 4 -60 9 -60 5 0 8 14 6 30 -2 17 0 33 4 35 9 6 1 43
-10 50 -5 3 -9 -22 -9 -55z"/>
<path d="M586 352 c-2 -4 -6 -19 -10 -34 -5 -22 -3 -28 10 -28 9 0 14 6 11 13
-3 8 -1 20 4 28 8 12 10 12 19 -1 8 -13 10 -13 10 1 0 16 -37 33 -44 21z"/>
<path d="M466 341 c-4 -5 -3 -17 0 -26 4 -10 -1 -22 -12 -31 -18 -13 -17 -14
11 -8 34 8 57 24 33 24 -11 0 -14 7 -10 25 4 24 -11 35 -22 16z"/>
<path d="M2507 338 c7 -8 10 -18 6 -22 -4 -4 0 -4 10 0 12 4 17 1 17 -10 0 -9
5 -16 10 -16 22 0 8 27 -22 45 -24 13 -30 15 -21 3z"/>
<path d="M2300 335 c0 -16 134 -135 152 -135 16 0 19 -4 14 -22 -3 -13 -6 -29
-6 -35 0 -7 -7 -13 -16 -13 -11 0 -13 -6 -9 -19 3 -11 1 -22 -5 -26 -13 -8
-13 -28 1 -23 6 2 11 8 11 13 0 6 3 15 8 20 4 6 13 27 19 48 13 39 25 47 35
22 3 -8 1 -15 -5 -15 -6 0 -7 -5 -3 -11 4 -8 9 -7 15 2 8 12 10 12 18 0 5 -8
11 -9 15 -3 3 5 -1 15 -9 22 -20 17 -19 32 3 28 11 -2 18 4 20 20 2 12 -2 22
-7 22 -7 0 -9 10 -5 25 3 14 2 25 -4 25 -18 0 -22 -44 -5 -62 10 -11 12 -18 5
-18 -7 0 -12 5 -12 10 0 6 -5 10 -11 10 -6 0 -9 -7 -5 -15 3 -9 0 -15 -9 -15
-8 0 -15 4 -15 8 0 8 -60 36 -72 33 -5 0 -8 6 -8 14 0 8 -3 15 -7 15 -5 0 -26
18 -48 40 -37 36 -55 48 -55 35z"/>
<path d="M312 295 c1 -27 5 -34 16 -30 7 3 26 8 40 11 47 10 52 13 46 29 -3 8
-10 15 -15 15 -4 0 -6 -7 -3 -15 5 -11 -1 -15 -20 -16 -14 -1 -32 -2 -38 -3
-7 -1 -12 9 -12 22 1 12 -2 22 -7 22 -5 0 -8 -16 -7 -35z"/>
<path d="M155 311 c-3 -6 -2 -11 3 -11 5 0 8 -13 6 -30 -2 -20 1 -30 10 -30
20 0 24 8 17 42 -7 33 -24 47 -36 29z"/>
<path d="M645 290 c3 -5 17 -10 31 -10 13 0 24 -4 24 -10 0 -8 -41 -6 -77 6
-7 2 -13 0 -13 -5 0 -7 55 -21 88 -21 22 0 13 37 -10 44 -34 9 -50 7 -43 -4z"/>
<path d="M530 263 c0 -11 6 -14 23 -9 12 3 28 6 36 6 26 0 2 13 -29 15 -21 2
-30 -2 -30 -12z"/>
<path d="M363 258 c-29 -5 -53 -14 -53 -20 0 -6 9 -8 23 -4 12 4 37 9 55 13
17 3 32 10 32 14 0 5 -1 8 -2 8 -2 -1 -27 -6 -55 -11z"/>
<path d="M468 263 c-10 -2 -18 -9 -18 -14 0 -6 10 -8 23 -4 20 6 21 5 5 -8
-24 -19 -23 -26 5 -20 20 4 21 3 5 -10 -22 -17 -24 -31 -4 -24 10 4 19 -4 25
-21 9 -23 10 -19 5 23 -3 28 -6 58 -6 68 1 17 -7 19 -40 10z"/>
<path d="M79 253 c-1 -5 -3 -30 -4 -58 -2 -27 -7 -69 -13 -92 -6 -29 -6 -45 1
-52 8 -8 8 -11 -1 -11 -7 0 -12 -7 -12 -15 0 -25 17 -17 24 11 4 14 9 51 12
82 7 66 17 89 41 95 10 2 8 3 -4 2 -18 -2 -23 3 -23 21 0 22 -18 35 -21 17z"/>
<path d="M939 252 c-19 -8 -82 -63 -93 -80 -14 -23 5 -11 44 28 22 22 49 40
60 40 11 0 20 5 20 10 0 11 -8 12 -31 2z"/>
<path d="M570 233 c0 -5 25 -8 55 -9 30 0 55 3 55 8 0 4 -25 8 -55 8 -30 0
-55 -3 -55 -7z"/>
<path d="M593 202 c-44 -7 -22 -21 33 -21 31 0 58 -2 62 -5 3 -3 11 -1 18 5 8
7 29 7 63 1 54 -10 63 -8 54 13 -3 9 -16 12 -36 9 -41 -5 -154 -7 -164 -2 -4
2 -18 2 -30 0z"/>
<path d="M2628 203 c20 -8 14 -43 -8 -43 -11 0 -20 -4 -20 -9 0 -5 11 -8 25
-7 21 1 25 6 25 34 0 24 -4 32 -17 31 -11 0 -13 -3 -5 -6z"/>
<path d="M2767 190 c3 -11 11 -20 17 -20 6 0 12 9 13 20 1 13 -4 20 -17 20
-13 0 -17 -5 -13 -20z"/>
<path d="M2825 200 c-2 -4 -3 -19 -1 -35 3 -27 6 -29 52 -32 27 -1 61 -5 77
-8 15 -2 27 0 27 5 0 10 -12 13 -65 14 -31 1 -48 32 -25 46 7 4 -3 9 -24 12
-21 2 -39 1 -41 -2z m45 -30 c0 -11 -7 -20 -15 -20 -8 0 -15 9 -15 20 0 11 7
20 15 20 8 0 15 -9 15 -20z"/>
<path d="M373 187 c-35 -5 -53 -13 -53 -23 0 -16 16 -19 25 -4 4 6 11 8 16 4
5 -3 15 -1 22 4 7 6 23 12 37 14 14 1 21 6 15 9 -5 3 -34 1 -62 -4z"/>
<path d="M1622 168 c-7 -7 -12 -19 -12 -27 1 -14 3 -13 14 2 7 9 18 17 25 17
6 0 11 5 11 10 0 14 -23 13 -38 -2z"/>
<path d="M180 160 c-11 -7 -12 -13 -1 -36 10 -22 10 -29 -1 -35 -9 -6 -7 -9 7
-9 17 0 20 6 18 41 -1 47 -4 51 -23 39z"/>
<path d="M273 140 c2 -29 20 -40 32 -20 3 6 1 10 -6 10 -8 0 -9 3 0 13 12 15
5 27 -15 27 -8 0 -12 -11 -11 -30z"/>
<path d="M112 115 c-2 -33 3 -47 23 -65 22 -20 25 -21 25 -6 0 10 -8 20 -19
23 -21 5 -25 63 -3 63 6 0 12 6 12 13 0 7 -8 13 -18 13 -15 0 -19 -9 -20 -41z"/>
<path d="M1685 144 c-12 -37 -22 -48 -55 -59 -27 -9 -30 -13 -16 -18 30 -12
73 18 79 55 5 37 0 50 -8 22z"/>
<path d="M2350 133 c0 -22 18 -43 38 -43 9 0 12 9 10 28 -4 33 -48 47 -48 15z"/>
<path d="M573 112 l-2 -28 67 2 c40 0 68 6 70 13 2 6 -5 10 -15 9 -57 -5 -103
3 -103 17 0 27 -15 16 -17 -13z"/>
<path d="M824 125 c6 -16 1 -18 -61 -15 -25 1 -43 -3 -43 -9 0 -7 23 -11 58
-11 64 0 88 -10 79 -34 -4 -10 1 -20 14 -26 11 -6 17 -15 14 -21 -4 -5 5 -9
19 -9 l26 0 -31 51 c-18 28 -38 53 -45 56 -8 3 -14 11 -14 19 0 8 -5 14 -11
14 -6 0 -9 -7 -5 -15z"/>
<path d="M2552 128 c-7 -7 -12 -18 -12 -26 0 -7 -4 -10 -10 -7 -6 3 -7 -1 -4
-9 9 -22 -6 -20 -33 6 -22 21 -23 21 -23 2 0 -11 -5 -25 -11 -31 -8 -8 -5 -14
10 -22 12 -7 21 -18 21 -26 0 -8 6 -12 14 -9 17 7 10 34 -9 34 -7 0 -15 7 -19
15 -3 9 0 15 9 15 8 0 15 -4 15 -10 0 -25 30 -6 49 31 23 43 24 58 3 37z"/>
<path d="M491 116 c-23 -13 -23 -13 -2 -19 14 -3 19 -10 15 -21 -3 -9 -2 -16
4 -16 5 0 12 -13 16 -30 7 -39 33 -40 33 -1 0 17 -5 27 -11 25 -14 -5 -37 44
-25 52 11 6 12 24 2 24 -5 -1 -19 -7 -32 -14z"/>
<path d="M2825 110 c-8 -12 -14 -11 77 -15 78 -3 104 9 31 13 -21 2 -52 5 -70
7 -18 2 -35 0 -38 -5z"/>
<path d="M410 103 c-14 -2 -32 -7 -40 -10 -8 -3 -21 -5 -27 -4 -13 2 -18 -21
-7 -31 3 -3 23 3 44 13 21 11 46 19 55 19 8 0 15 5 15 10 0 6 -3 9 -7 9 -5 -1
-19 -4 -33 -6z"/>
<path d="M1030 93 c-19 -6 -65 -63 -51 -63 5 0 16 8 23 18 7 10 24 26 38 35
24 17 21 20 -10 10z"/>
<path d="M2596 81 c-3 -5 10 -9 29 -8 19 1 35 5 35 9 0 11 -57 10 -64 -1z"/>
<path d="M283 65 c-7 -20 2 -29 21 -22 9 4 13 13 10 22 -8 19 -23 19 -31 0z"/>
<path d="M593 62 c-43 -6 -23 -21 27 -20 28 0 50 3 50 8 0 9 -46 16 -77 12z"/>
<path d="M2210 63 c0 -10 69 -58 74 -52 3 2 -13 17 -35 32 -21 16 -39 25 -39
20z"/>
<path d="M2930 61 c16 -11 78 -15 67 -5 -3 3 -23 8 -44 11 -28 3 -34 1 -23 -6z"/>
<path d="M780 50 c0 -13 47 -13 55 0 4 6 -7 10 -24 10 -17 0 -31 -4 -31 -10z"/>
<path d="M1120 50 c-19 -12 4 -39 30 -37 18 1 18 2 2 22 -9 11 -17 21 -17 22
0 1 -7 -2 -15 -7z"/>
<path d="M2610 48 c0 -5 -3 -7 -7 -7 -35 6 -63 -3 -63 -18 0 -14 2 -15 9 -4 5
7 13 11 19 7 6 -3 13 -2 16 3 3 5 21 5 41 1 30 -7 35 -5 35 10 0 13 -7 17 -25
16 -14 0 -25 -4 -25 -8z"/>
<path d="M2680 47 c0 -21 11 -47 20 -47 12 0 6 53 -7 58 -7 2 -13 -3 -13 -11z"/>
<path d="M2780 30 c0 -14 7 -20 21 -20 15 0 19 4 15 16 -3 9 -6 18 -6 20 0 2
-7 4 -15 4 -8 0 -15 -9 -15 -20z"/>
</g>
</svg>
